<svg width="120" height="120" viewBox="0 0 120 120" fill="none" xmlns="http://www.w3.org/2000/svg">
<path fill-rule="evenodd" clip-rule="evenodd" d="M67.7006 26.4452C65.1328 23.8779 62.4822 21.3948 59.7529 19C57.5793 21.3055 55.24 23.5981 52.8965 25.8948C50.9749 27.7781 49.0505 29.664 47.2126 31.5619C43.4714 31.6862 39.5977 31.7008 35.749 31.7154C33.5026 31.7239 31.2647 31.7324 29.0667 31.7626C29.1485 34.6115 29.0904 37.4924 29.0324 40.3698C28.9913 42.4117 28.9501 44.4522 28.9591 46.4782C28.9634 47.4836 28.9312 48.5117 28.8883 49.5167C27.5482 51.0176 26.0889 52.5065 24.6333 53.9915C23.602 55.0437 22.5726 56.094 21.5889 57.1452C21.1607 57.6027 20.6425 58.1838 20.0902 58.8031C18.8807 60.1594 17.5079 61.6988 16.5605 62.5238C17.2694 63.1918 18.652 64.6698 19.7746 65.8698C20.2593 66.388 20.6968 66.8556 21.0093 67.1824C21.5078 67.7038 22.1607 68.3522 22.8808 69.0673C25.0347 71.2061 27.79 73.9423 28.8173 75.6676C28.8626 77.3557 28.8687 79.0875 28.8749 80.8174C28.8823 82.9208 28.8898 85.0218 28.9676 87.0382C29.9738 86.9761 30.9902 86.888 32.0033 86.8003C33.0594 86.7088 34.1134 86.6175 35.1499 86.5561C42.5892 86.1159 49.4006 86.9138 55.3928 90.8468C55.2384 90.6275 55.0839 90.4082 54.9293 90.189C53.3507 87.95 51.765 85.701 50.3952 83.3329C49.4513 81.701 48.8339 79.4458 48.5626 77.5355C48.4873 75.8162 48.4005 73.7914 48.8224 72.1313C49.6228 68.9824 51.7734 67.6291 54.0412 66.202L54.3172 66.0282C54.3457 65.8902 54.3584 65.7624 54.3712 65.6285L54.3809 65.5293C54.4113 65.238 54.4398 64.9416 54.4683 64.6422C54.7773 61.4238 55.1211 57.8419 57.8901 56.0608C58.383 55.7436 58.7934 55.6165 59.3543 55.5304C59.4174 55.5206 59.4896 55.5135 59.5679 55.5085C59.8702 55.4896 60.2575 55.5038 60.5009 55.5351C64.018 55.9878 67.0841 58.1576 69.9177 60.3636C70.1845 60.5713 70.4491 60.7575 70.7091 60.9406C71.343 61.3869 71.9503 61.8144 72.5 62.4883C72.0229 63.5722 71.5822 64.7539 71.1421 65.939L71.118 66.0037C70.6319 67.3117 70.145 68.6218 69.6087 69.8075L63.1688 70.9328C61.1329 71.3078 59.0331 71.7155 57.0682 72.4196C57.0134 72.4392 56.9484 72.4616 56.8756 72.4866C56.6834 72.5527 56.4364 72.6376 56.1813 72.7385C55.6016 72.9679 54.9764 73.2818 54.8374 73.6555C54.6091 74.2691 54.5472 74.9631 54.489 75.6645L54.4842 75.7218C54.4349 76.3182 54.3852 76.919 54.2352 77.4786C54.1557 76.9616 54.16 76.3779 54.1648 75.7657C54.1697 75.1417 54.1745 74.4881 54.0914 73.8452C53.3599 74.226 51.985 75.1427 51.608 75.9376C51.2972 76.5922 52.5519 78.0195 53.2002 78.7569C53.3125 78.8847 53.4066 78.9921 53.471 79.0708L56.528 82.7926C56.6578 82.9506 56.7935 83.1137 56.932 83.2803C57.4552 83.9094 58.0194 84.5879 58.4613 85.2197C60.0783 87.5306 61.6487 90.0539 62.9525 92.6852C64.358 91.6111 65.8568 90.5954 67.3555 89.7499C73.8697 86.075 81.444 86.2527 88.6648 86.7555C89.3595 86.8039 90.0556 86.8336 90.7538 86.8251C90.7611 85.6254 90.7545 84.3842 90.7479 83.1323C90.7347 80.6536 90.7214 78.1297 90.8152 75.7899C91.8993 74.4026 92.6423 73.6565 93.6204 72.6742C93.9355 72.3578 94.2756 72.0162 94.6589 71.6213L100.314 65.7768C100.472 65.6121 100.649 65.4292 100.837 65.2355C101.672 64.374 102.726 63.2858 103.304 62.5042C101.941 61.1263 100.632 59.7061 99.3235 58.2871C97.2592 56.0481 95.1974 53.8118 92.9301 51.7488C92.2161 51.0993 91.5534 50.3543 90.9333 49.6134C90.6806 45.3907 90.6286 40.411 90.5804 35.7974C90.5661 34.4309 90.5522 33.0954 90.5334 31.822L79.6975 31.6847C79.1663 31.6799 78.6246 31.6786 78.0778 31.6772C76.3352 31.673 74.5396 31.6687 72.8604 31.5508C71.5508 30.4739 70.4228 29.2851 69.2852 28.0863C68.7651 27.5381 68.243 26.9878 67.7006 26.4452ZM62.4915 27.768C62.9556 28.2531 63.4294 28.7481 63.9807 29.2633C64.8634 30.0884 65.7533 30.9482 66.6468 31.8116C68.0605 33.1774 69.4833 34.5521 70.9012 35.812C71.8059 35.9822 74.2922 35.9637 75.8561 35.9521C76.1962 35.9495 76.4936 35.9473 76.7206 35.9474C79.9091 35.9537 83.0975 35.9888 86.2854 36.0528C86.2744 39.6766 86.298 43.3003 86.3565 46.9236C86.3628 47.3753 86.3642 47.8761 86.3656 48.3955C86.3688 49.5996 86.3724 50.9042 86.4387 51.9268C88.7702 53.8995 90.5849 55.6929 92.7018 57.9028C93.146 58.3666 93.5941 58.8154 94.0402 59.2623C95.0789 60.3027 96.1075 61.333 97.0531 62.5175L92.1542 67.3988C91.9641 67.5866 91.7671 67.7884 91.5644 67.9959C90.7892 68.7897 89.9314 69.6681 89.0647 70.1704C88.8958 70.424 88.087 72.6253 87.6981 73.684C87.6244 73.8845 87.5636 74.05 87.5282 74.1449C86.5225 76.8397 85.7172 78.1659 84.1065 80.4583C84.9009 80.2982 85.8201 80.2985 86.6676 80.2988C86.798 80.2989 86.9271 80.2989 87.0534 80.2984L87.0552 80.5472L87.0578 80.9461C87.0664 82.324 87.0752 83.7039 87.1494 85.0788C87.5171 85.0939 87.9026 85.0841 88.2783 85.0746C88.3664 85.0724 88.454 85.0701 88.5407 85.0683C88.6329 83.2116 88.6469 81.328 88.6608 79.4437C88.6732 77.7628 88.6856 76.0796 88.7536 74.4157C89.8527 73.2882 90.9545 72.2104 92.0541 71.1348C92.9219 70.2859 93.789 69.4378 94.6515 68.5682C96.5711 66.5955 98.4769 64.6092 100.369 62.6097C99.0801 61.1371 97.6842 59.6599 96.3091 58.2047L96.3002 58.1953C95.7662 57.6303 95.2347 57.0678 94.7144 56.5108C94.0572 55.8072 93.2844 55.0955 92.4958 54.3694C91.1584 53.138 89.7759 51.865 88.8358 50.5191C88.6681 49.1824 88.6577 46.7383 88.6501 44.9332C88.6483 44.5147 88.6467 44.1257 88.6433 43.7979L88.4736 34.0243C85.3757 33.8445 82.298 33.7998 79.2219 33.7552C76.7926 33.7199 74.3642 33.6847 71.9276 33.5829C69.2192 31.1711 66.7345 28.6787 64.2254 26.0701C63.2219 25.0269 61.9785 23.9729 60.8047 22.978C60.4668 22.6915 60.1345 22.4098 59.8155 22.1348C58.3503 23.4811 56.7875 24.963 55.3988 26.3546C55.063 26.6911 54.5637 27.2151 53.9762 27.8318C52.0384 29.8658 49.1407 32.9075 47.981 33.5494C47.1753 33.6008 46.1798 33.603 45.2129 33.6051C44.6118 33.6063 44.0218 33.6076 43.4951 33.6207L31.3656 33.9199C31.1929 37.491 31.1857 41.0958 31.1786 44.6827C31.177 45.5205 31.1753 46.3596 31.1716 47.1949C31.1706 47.396 31.1711 47.5988 31.1716 47.8023C31.1735 48.633 31.1755 49.4788 31.0833 50.2942C30.7409 50.8386 29.7589 51.8228 29.1045 52.4787C28.9722 52.6112 28.8534 52.7304 28.7558 52.8298L24.2327 57.4348C23.6537 58.0349 23.0802 58.6775 22.502 59.3252C21.5068 60.4402 20.498 61.5704 19.4246 62.5255C20.2451 63.2006 21.4241 64.4645 22.4275 65.5402C22.8029 65.9427 23.1539 66.3189 23.4522 66.6281C25.9634 69.192 28.4576 71.7729 30.9344 74.3701C30.8261 76.6932 30.9599 82.756 31.1909 85.0054C31.5971 85.0843 32.0166 85.0997 32.4325 85.115L32.5023 85.1176C32.5312 85.1187 32.5602 85.1198 32.5891 85.1209C32.6088 85.1217 32.6284 85.1225 32.6479 85.1233L32.778 80.1741C33.1754 80.2227 33.5469 80.2399 33.9139 80.2569C34.5489 80.2864 35.1704 80.3152 35.8888 80.5048C34.2579 78.6219 32.9761 75.6271 31.8018 72.8833C31.3793 71.896 30.9705 70.9408 30.5645 70.082C29.0062 69.1348 27.323 67.3356 25.8206 65.7297C25.2515 65.1214 24.7083 64.5408 24.2077 64.0448C24.0203 63.859 23.8199 63.6418 23.615 63.4196C23.2721 63.048 22.9165 62.6624 22.5877 62.3878C23.8663 61.4729 25.1563 59.9842 26.4182 58.528C27.2916 57.5201 28.1516 56.5277 28.9851 55.7517C30.3797 54.4532 31.8581 52.939 33.1342 51.5383C33.7177 50.7724 33.6703 47.9287 33.6427 46.2684C33.6371 45.9381 33.6324 45.6544 33.6336 45.4435C33.6669 42.321 33.6648 39.1983 33.6271 36.0758C36.2631 35.9757 38.9007 35.9231 41.5387 35.9181C42.2642 35.9192 43.0197 35.9281 43.7858 35.9372C45.4979 35.9575 47.2641 35.9784 48.8659 35.914C49.4472 35.4714 49.9645 34.9522 50.4786 34.4348C51.3608 33.547 52.2662 32.683 53.1717 31.8191C54.2307 30.8086 55.2901 29.7977 56.3118 28.7493C56.642 28.4127 56.9722 28.0478 57.3072 27.6776C58.0919 26.8105 58.9036 25.9135 59.8067 25.2802C60.9097 26.115 61.6862 26.9265 62.4915 27.768ZM89.9973 68.1371C89.7836 68.4628 89.4976 68.8988 89.2542 69.0693C89.2941 68.3795 89.3508 67.8341 89.4011 67.3509C89.4731 66.6586 89.5339 66.0736 89.5216 65.2978C89.5142 64.8324 89.4805 64.2982 89.4071 63.6309C88.6248 56.5268 84.7507 52.1961 79.174 48.1556C78.28 47.5606 77.3621 47.0015 76.4442 46.4423C75.6832 45.9788 74.9222 45.5152 74.175 45.0313C68.1556 41.1331 63.6563 37.8673 59.8183 31.6424C57.2119 36.1742 54.8406 38.6638 50.5511 41.6186C50.0942 41.9236 49.6312 42.2688 49.1659 42.6158C48.5433 43.0801 47.9163 43.5476 47.2934 43.9267L46.9749 44.1204L46.9388 44.1424C46.2037 44.5894 45.4664 45.0378 44.733 45.4928C39.5992 48.6777 34.6543 52.1868 31.9704 57.8342C30.0872 61.7964 29.8749 64.094 30.2545 68.4207L30.0491 68.4604C29.7173 68.1681 29.461 67.8568 29.2119 67.5542C29.0364 67.3411 28.8643 67.1322 28.672 66.9373C28.2811 66.5411 27.7719 65.9688 27.2268 65.3562C26.2292 64.2351 25.1111 62.9786 24.3774 62.4182C25.6955 61.3171 26.7652 60.0945 27.8568 58.8469C28.2917 58.3497 28.7305 57.8481 29.1897 57.349C29.806 56.6954 30.4448 56.0611 31.0837 55.4267C31.9524 54.5641 32.8213 53.7013 33.6341 52.7896L33.6611 52.7593C34.308 52.034 34.7643 51.5224 34.7977 50.4938C34.8756 48.0914 34.8778 45.6828 34.88 43.2753C34.8814 41.8308 34.8827 40.3866 34.9004 38.9441C34.9063 38.462 34.9118 37.969 34.9011 37.488C38.1564 37.4336 41.4119 37.3991 44.6676 37.3844C45.0254 37.3812 45.41 37.3805 45.8077 37.3798C47.057 37.3776 48.4391 37.3751 49.5412 37.2946C50.1203 36.709 50.6685 36.1044 51.2164 35.5001C51.8628 34.7872 52.5087 34.0747 53.2045 33.3945C54.0265 32.591 54.8762 31.8083 55.7267 31.0249C57.1493 29.7145 58.574 28.4022 59.8741 26.9875C60.7945 28.1676 61.8525 29.0822 62.9287 30.0125C63.5834 30.5785 64.245 31.1504 64.8862 31.7914C65.3853 32.2902 65.8943 32.7802 66.4036 33.2706C67.0396 33.8827 67.6768 34.4962 68.2973 35.1294C68.5398 35.377 68.8026 35.6613 69.0699 35.9506C69.5022 36.4185 69.9472 36.9001 70.3384 37.2603C73.4951 37.444 77.0162 37.4405 80.4267 37.437C81.9981 37.4354 83.5463 37.4339 85.0244 37.4506C85.0669 42.2671 85.1471 47.083 85.2648 51.8982C86.2671 53.2925 87.7152 54.7269 89.1584 56.1564C90.3736 57.36 91.5854 58.5603 92.5248 59.7306C92.8546 60.1413 93.3968 60.5992 93.9577 61.0727C94.4902 61.5223 95.0395 61.9861 95.4397 62.4373C94.7136 63.3245 93.8782 64.0813 93.0454 64.8358C91.9928 65.7894 90.9442 66.7394 90.1252 67.9442C90.11 67.9665 90.0941 67.9903 90.0775 68.0152C90.0522 68.0534 90.0254 68.0943 89.9973 68.1371ZM57.6346 62.8906C58.9451 62.7826 59.9182 63.1685 61.0503 63.8588C60.35 64.1764 59.5611 64.4045 58.8098 64.6217L58.4377 64.7297L58.179 64.8039L58.055 64.8395C57.2266 65.078 56.3828 65.321 55.5458 65.4815C55.93 64.1713 56.3216 63.1978 57.6346 62.8906Z" fill="#121212"/>
<path d="M80.1651 88.2496C84.4263 88.0693 91.3332 88.5453 95.4763 89.6492C98.4207 90.4337 101.743 91.635 104.892 92.4239C104.512 93.002 104.088 93.8747 103.759 94.5089C103.016 94.1746 101.68 93.8453 100.882 93.6228C95.7931 92.204 86.2499 90.7422 81.151 91.5237C83.4493 92.3122 85.7306 92.0944 88.1249 92.4299C92.6023 93.0572 97.1213 94.1147 101.304 95.8615C101.67 96.0142 102.345 96.225 102.599 96.4971C101.862 97.458 100.187 100.819 99.639 101.965C98.8371 101.416 95.4496 99.7985 94.5299 99.4079C85.3709 95.5176 75.0211 93.7392 65.183 95.7607C63.9098 96.0223 61.6448 96.499 60.4844 96.9726C62.6644 93.4363 69.6594 90.2624 73.579 89.1622C75.5217 88.617 78.1206 88.3446 80.1651 88.2496Z" fill="#121212"/>
<path d="M37.6918 88.1429C39.9674 88.0588 44.742 88.5126 47.2349 89.1302C50.7509 90.0012 57.5551 93.3227 59.9862 96.2664C60.1354 96.447 60.1218 96.5847 60.0719 96.7711C59.4214 96.6789 57.8542 96.1481 57.1407 95.9641C55.8233 95.6244 54.7809 95.4377 53.4385 95.2651C45.365 94.2943 37.1765 95.2766 29.5618 98.1296C26.259 99.3794 24.2034 100.457 21.0887 102C20.5778 100.878 20.1246 99.9924 19.5414 98.9092C19.0793 97.9961 18.6631 97.1344 18.0942 96.2791C23.0425 94.2505 28.2576 92.9466 33.5783 92.4077C34.748 92.2785 39.0383 92.201 39.5674 91.8076L39.5013 91.668C38.5328 91.1339 33.9 91.3264 32.5922 91.3818C27.3438 91.6039 22.2575 92.9251 17.2062 94.2485C16.8786 93.6325 16.3861 92.9088 16 92.3099C17.1617 92.1685 18.7902 91.5971 19.9429 91.2459C21.7325 90.7079 23.5271 90.1866 25.3265 89.6823C28.7987 88.742 34.0313 88.2971 37.6918 88.1429Z" fill="#121212"/>
</svg>
